<svg width="2000" height="800" viewBox="0 0 2000 800" fill="none" xmlns="http://www.w3.org/2000/svg">
<g clip-path="url(#clip0_4119_1630)">
<g filter="url(#filter0_d_4119_1630)">
<rect x="484" y="191" width="417" height="418" rx="64" fill="#2D3748"/>
<rect x="484" y="191" width="417" height="418" rx="64" stroke="#2D3748" stroke-width="32" stroke-linejoin="round"/>
<path d="M568.159 536H514.159L612.477 256.727H674.932L773.386 536H719.386L644.795 314H642.614L568.159 536ZM569.932 426.5H717.205V467.136H569.932V426.5ZM809.489 536V326.545H858.852V536H809.489ZM834.307 296.818C826.489 296.818 819.761 294.227 814.125 289.045C808.489 283.773 805.67 277.455 805.67 270.091C805.67 262.636 808.489 256.318 814.125 251.136C819.761 245.864 826.489 243.227 834.307 243.227C842.216 243.227 848.943 245.864 854.489 251.136C860.125 256.318 862.943 262.636 862.943 270.091C862.943 277.455 860.125 283.773 854.489 289.045C848.943 294.227 842.216 296.818 834.307 296.818Z" fill="#EDF2F7"/>
</g>
<path d="M1136.6 382.105L1091.6 387.014C1090.32 382.469 1088.1 378.196 1084.91 374.196C1081.82 370.196 1077.64 366.969 1072.37 364.514C1067.1 362.06 1060.64 360.833 1053.01 360.833C1042.73 360.833 1034.1 363.06 1027.1 367.514C1020.19 371.969 1016.78 377.742 1016.87 384.833C1016.78 390.924 1019.01 395.878 1023.55 399.696C1028.19 403.514 1035.82 406.651 1046.46 409.105L1082.19 416.742C1102.01 421.014 1116.73 427.787 1126.37 437.06C1136.1 446.333 1141.01 458.469 1141.1 473.469C1141.01 486.651 1137.14 498.287 1129.51 508.378C1121.96 518.378 1111.46 526.196 1098.01 531.833C1084.55 537.469 1069.1 540.287 1051.64 540.287C1026.01 540.287 1005.37 534.924 989.733 524.196C974.097 513.378 964.778 498.333 961.778 479.06L1009.91 474.424C1012.1 483.878 1016.73 491.014 1023.82 495.833C1030.91 500.651 1040.14 503.06 1051.51 503.06C1063.23 503.06 1072.64 500.651 1079.73 495.833C1086.91 491.014 1090.51 485.06 1090.51 477.969C1090.51 471.969 1088.19 467.014 1083.55 463.105C1079.01 459.196 1071.91 456.196 1062.28 454.105L1026.55 446.605C1006.46 442.424 991.597 435.378 981.96 425.469C972.324 415.469 967.551 402.833 967.642 387.56C967.551 374.651 971.051 363.469 978.142 354.014C985.324 344.469 995.278 337.105 1008.01 331.924C1020.82 326.651 1035.6 324.014 1052.32 324.014C1076.87 324.014 1096.19 329.242 1110.28 339.696C1124.46 350.151 1133.23 364.287 1136.6 382.105ZM1274.53 540.287C1253.53 540.287 1235.39 535.924 1220.12 527.196C1204.94 518.378 1193.26 505.924 1185.07 489.833C1176.89 473.651 1172.8 454.605 1172.8 432.696C1172.8 411.151 1176.89 392.242 1185.07 375.969C1193.35 359.605 1204.89 346.878 1219.71 337.787C1234.53 328.605 1251.94 324.014 1271.94 324.014C1284.85 324.014 1297.03 326.105 1308.48 330.287C1320.03 334.378 1330.21 340.742 1339.03 349.378C1347.94 358.014 1354.94 369.014 1360.03 382.378C1365.12 395.651 1367.66 411.469 1367.66 429.833V444.969H1195.98V411.696H1320.35C1320.26 402.242 1318.21 393.833 1314.21 386.469C1310.21 379.014 1304.62 373.151 1297.44 368.878C1290.35 364.605 1282.07 362.469 1272.62 362.469C1262.53 362.469 1253.66 364.924 1246.03 369.833C1238.39 374.651 1232.44 381.014 1228.16 388.924C1223.98 396.742 1221.85 405.333 1221.76 414.696V443.742C1221.76 455.924 1223.98 466.378 1228.44 475.105C1232.89 483.742 1239.12 490.378 1247.12 495.014C1255.12 499.56 1264.48 501.833 1275.21 501.833C1282.39 501.833 1288.89 500.833 1294.71 498.833C1300.53 496.742 1305.57 493.696 1309.85 489.696C1314.12 485.696 1317.35 480.742 1319.53 474.833L1365.62 480.014C1362.71 492.196 1357.16 502.833 1348.98 511.924C1340.89 520.924 1330.53 527.924 1317.89 532.924C1305.26 537.833 1290.8 540.287 1274.53 540.287ZM1409.43 536.196V326.742H1457.29V361.651H1459.47C1463.29 349.56 1469.84 340.242 1479.11 333.696C1488.47 327.06 1499.15 323.742 1511.15 323.742C1513.88 323.742 1516.93 323.878 1520.29 324.151C1523.74 324.333 1526.61 324.651 1528.88 325.105V370.514C1526.79 369.787 1523.47 369.151 1518.93 368.605C1514.47 367.969 1510.15 367.651 1505.97 367.651C1496.97 367.651 1488.88 369.605 1481.7 373.514C1474.61 377.333 1469.02 382.651 1464.93 389.469C1460.84 396.287 1458.79 404.151 1458.79 413.06V536.196H1409.43Z" fill="#2D3748"/>
</g>
<defs>
<filter id="filter0_d_4119_1630" x="464" y="175" width="457" height="458" filterUnits="userSpaceOnUse" color-interpolation-filters="sRGB">
<feFlood flood-opacity="0" result="BackgroundImageFix"/>
<feColorMatrix in="SourceAlpha" type="matrix" values="0 0 0 0 0 0 0 0 0 0 0 0 0 0 0 0 0 0 127 0" result="hardAlpha"/>
<feOffset dy="4"/>
<feGaussianBlur stdDeviation="2"/>
<feComposite in2="hardAlpha" operator="out"/>
<feColorMatrix type="matrix" values="0 0 0 0 0 0 0 0 0 0 0 0 0 0 0 0 0 0 0.25 0"/>
<feBlend mode="normal" in2="BackgroundImageFix" result="effect1_dropShadow_4119_1630"/>
<feBlend mode="normal" in="SourceGraphic" in2="effect1_dropShadow_4119_1630" result="shape"/>
</filter>
<clipPath id="clip0_4119_1630">
<rect width="1092" height="450" fill="white" transform="translate(454 175)"/>
</clipPath>
</defs>
</svg>
