<svg width="2282" height="1030" viewBox="0 0 2282 1030" fill="none" xmlns="http://www.w3.org/2000/svg">
<rect width="2282" height="1030" fill="#2D3748"/>
<g filter="url(#filter0_ddd_4090_564)">
<path d="M747.97 509.909C747.97 533.473 767.072 552.576 790.636 552.576C814.201 552.576 833.303 533.473 833.303 509.909C833.303 486.345 814.201 467.243 790.636 467.243C767.072 467.243 747.97 486.345 747.97 509.909ZM530.333 509.909C530.333 533.473 549.436 552.576 573 552.576C596.564 552.576 615.667 533.473 615.667 509.909C615.667 486.345 596.564 467.243 573 467.243C549.436 467.243 530.333 486.345 530.333 509.909ZM790.636 501.909H573V517.909H790.636V501.909Z" fill="#EDF2F7"/>
<path d="M940.909 184.667C964.473 184.667 983.576 165.564 983.576 142C983.576 118.436 964.473 99.3332 940.909 99.3332C917.345 99.3332 898.242 118.436 898.242 142C898.242 165.564 917.345 184.667 940.909 184.667ZM940.909 402.303C964.473 402.303 983.576 383.2 983.576 359.636C983.576 336.072 964.473 316.97 940.909 316.97C917.345 316.97 898.242 336.072 898.242 359.636C898.242 383.2 917.345 402.303 940.909 402.303ZM932.909 142V359.636H948.909V142H932.909Z" fill="#EDF2F7"/>
<path d="M942.636 845.515C919.072 845.515 899.97 864.617 899.97 888.181C899.97 911.745 919.072 930.848 942.636 930.848C966.2 930.848 985.303 911.745 985.303 888.181C985.303 864.617 966.2 845.515 942.636 845.515ZM942.636 631.333C919.072 631.333 899.97 650.435 899.97 674C899.97 697.564 919.072 716.666 942.636 716.666C966.201 716.666 985.303 697.564 985.303 674C985.303 650.435 966.201 631.333 942.636 631.333ZM950.636 888.181L950.636 674L934.636 674L934.636 888.181L950.636 888.181Z" fill="#EDF2F7"/>
<path d="M837.788 390.727C837.788 414.291 856.89 433.394 880.455 433.394C904.019 433.394 923.121 414.291 923.121 390.727C923.121 367.163 904.019 348.06 880.455 348.06C856.89 348.06 837.788 367.163 837.788 390.727ZM744.538 235.272L750.561 230.007C749.041 228.269 746.846 227.272 744.538 227.272V235.272ZM561.424 235.272C561.424 258.837 580.527 277.939 604.091 277.939C627.655 277.939 646.758 258.837 646.758 235.272C646.758 211.708 627.655 192.606 604.091 192.606C580.527 192.606 561.424 211.708 561.424 235.272ZM886.477 385.461L750.561 230.007L738.515 240.538L874.432 395.993L886.477 385.461ZM744.538 227.272H604.091V243.272H744.538V227.272Z" fill="#EDF2F7"/>
<path d="M1061.3 390.727C1061.3 414.291 1042.2 433.394 1018.64 433.394C995.072 433.394 975.97 414.291 975.97 390.727C975.97 367.163 995.072 348.06 1018.64 348.06C1042.2 348.06 1061.3 367.163 1061.3 390.727ZM1154.55 235.272L1148.53 230.007C1150.05 228.269 1152.24 227.272 1154.55 227.272V235.272ZM1337.67 235.272C1337.67 258.837 1318.56 277.939 1295 277.939C1271.44 277.939 1252.33 258.837 1252.33 235.272C1252.33 211.708 1271.44 192.606 1295 192.606C1318.56 192.606 1337.67 211.708 1337.67 235.272ZM1012.61 385.461L1148.53 230.007L1160.58 240.538L1024.66 395.993L1012.61 385.461ZM1154.55 227.272H1295V243.272H1154.55V227.272Z" fill="#EDF2F7"/>
<path d="M837.788 656.727C837.788 633.163 856.89 614.06 880.455 614.06C904.019 614.06 923.121 633.163 923.121 656.727C923.121 680.291 904.019 699.394 880.455 699.394C856.89 699.394 837.788 680.291 837.788 656.727ZM744.538 812.182L750.561 817.447C749.041 819.185 746.846 820.182 744.538 820.182V812.182ZM561.424 812.182C561.424 788.617 580.527 769.515 604.091 769.515C627.655 769.515 646.758 788.617 646.758 812.182C646.758 835.746 627.655 854.848 604.091 854.848C580.527 854.848 561.424 835.746 561.424 812.182ZM886.477 661.993L750.561 817.447L738.515 806.916L874.432 651.461L886.477 661.993ZM744.538 820.182H604.091V804.182H744.538V820.182Z" fill="#EDF2F7"/>
<path d="M1061.3 656.727C1061.3 633.163 1042.2 614.06 1018.64 614.06C995.072 614.06 975.97 633.163 975.97 656.727C975.97 680.291 995.072 699.394 1018.64 699.394C1042.2 699.394 1061.3 680.291 1061.3 656.727ZM1154.55 812.182L1148.53 817.447C1150.05 819.185 1152.24 820.182 1154.55 820.182V812.182ZM1337.67 812.182C1337.67 788.617 1318.56 769.515 1295 769.515C1271.44 769.515 1252.33 788.617 1252.33 812.182C1252.33 835.746 1271.44 854.848 1295 854.848C1318.56 854.848 1337.67 835.746 1337.67 812.182ZM1012.61 661.993L1148.53 817.447L1160.58 806.916L1024.66 651.461L1012.61 661.993ZM1154.55 820.182H1295V804.182H1154.55V820.182Z" fill="#EDF2F7"/>
<path d="M659.364 408H776.818" stroke="#EDF2F7" stroke-width="16" stroke-linecap="round"/>
<path d="M659.364 615.272H776.818" stroke="#EDF2F7" stroke-width="16" stroke-linecap="round"/>
<path d="M873.545 356.182V238.727" stroke="#EDF2F7" stroke-width="16" stroke-linecap="round"/>
<path d="M1011.73 356.182V238.727" stroke="#EDF2F7" stroke-width="16" stroke-linecap="round"/>
<path d="M873.545 794.908V677.454" stroke="#EDF2F7" stroke-width="16" stroke-linecap="round"/>
<path d="M1011.73 794.908V677.454" stroke="#EDF2F7" stroke-width="16" stroke-linecap="round"/>
<rect x="726" y="301.804" width="433" height="434" rx="32" fill="#3182CE"/>
<rect x="726" y="301.804" width="433" height="434" rx="32" stroke="#EDF2F7" stroke-width="16"/>
<path d="M1366.82 492.258L1337.91 500.44C1336.09 495.622 1333.41 490.94 1329.86 486.395C1326.41 481.758 1321.68 477.94 1315.68 474.94C1309.68 471.94 1302 470.44 1292.64 470.44C1279.82 470.44 1269.14 473.395 1260.59 479.304C1252.14 485.122 1247.91 492.531 1247.91 501.531C1247.91 509.531 1250.82 515.849 1256.64 520.486C1262.45 525.122 1271.55 528.986 1283.91 532.076L1315 539.713C1333.73 544.258 1347.68 551.213 1356.86 560.576C1366.05 569.849 1370.64 581.804 1370.64 596.44C1370.64 608.44 1367.18 619.167 1360.27 628.622C1353.45 638.076 1343.91 645.531 1331.64 650.986C1319.36 656.44 1305.09 659.167 1288.82 659.167C1267.45 659.167 1249.77 654.531 1235.77 645.258C1221.77 635.986 1212.91 622.44 1209.18 604.622L1239.73 596.986C1242.64 608.258 1248.14 616.713 1256.23 622.349C1264.41 627.986 1275.09 630.804 1288.27 630.804C1303.27 630.804 1315.18 627.622 1324 621.258C1332.91 614.804 1337.36 607.076 1337.36 598.076C1337.36 590.804 1334.82 584.713 1329.73 579.804C1324.64 574.804 1316.82 571.076 1306.27 568.622L1271.36 560.44C1252.18 555.895 1238.09 548.849 1229.09 539.304C1220.18 529.667 1215.73 517.622 1215.73 503.167C1215.73 491.349 1219.05 480.895 1225.68 471.804C1232.41 462.713 1241.55 455.576 1253.09 450.395C1264.73 445.213 1277.91 442.622 1292.64 442.622C1313.36 442.622 1329.64 447.167 1341.45 456.258C1353.36 465.349 1361.82 477.349 1366.82 492.258ZM1506.9 659.167C1486.72 659.167 1469.31 654.713 1454.67 645.804C1440.12 636.804 1428.9 624.258 1420.99 608.167C1413.17 591.986 1409.26 573.167 1409.26 551.713C1409.26 530.258 1413.17 511.349 1420.99 494.986C1428.9 478.531 1439.9 465.713 1453.99 456.531C1468.17 447.258 1484.72 442.622 1503.62 442.622C1514.53 442.622 1525.31 444.44 1535.94 448.076C1546.58 451.713 1556.26 457.622 1564.99 465.804C1573.72 473.895 1580.67 484.622 1585.85 497.986C1591.03 511.349 1593.62 527.804 1593.62 547.349V560.986H1432.17V533.167H1560.9C1560.9 521.349 1558.53 510.804 1553.81 501.531C1549.17 492.258 1542.53 484.94 1533.9 479.576C1525.35 474.213 1515.26 471.531 1503.62 471.531C1490.81 471.531 1479.72 474.713 1470.35 481.076C1461.08 487.349 1453.94 495.531 1448.94 505.622C1443.94 515.713 1441.44 526.531 1441.44 538.076V556.622C1441.44 572.44 1444.17 585.849 1449.62 596.849C1455.17 607.758 1462.85 616.076 1472.67 621.804C1482.49 627.44 1493.9 630.258 1506.9 630.258C1515.35 630.258 1522.99 629.076 1529.81 626.713C1536.72 624.258 1542.67 620.622 1547.67 615.804C1552.67 610.895 1556.53 604.804 1559.26 597.531L1590.35 606.258C1587.08 616.804 1581.58 626.076 1573.85 634.076C1566.13 641.986 1556.58 648.167 1545.22 652.622C1533.85 656.986 1521.08 659.167 1506.9 659.167ZM1642.58 654.804V445.349H1673.67V476.986H1675.85C1679.67 466.622 1686.58 458.213 1696.58 451.758C1706.58 445.304 1717.85 442.076 1730.4 442.076C1732.76 442.076 1735.72 442.122 1739.26 442.213C1742.81 442.304 1745.49 442.44 1747.31 442.622V475.349C1746.22 475.076 1743.72 474.667 1739.81 474.122C1735.99 473.486 1731.94 473.167 1727.67 473.167C1717.49 473.167 1708.4 475.304 1700.4 479.576C1692.49 483.758 1686.22 489.576 1681.58 497.031C1677.03 504.395 1674.76 512.804 1674.76 522.258V654.804H1642.58Z" fill="#EDF2F7"/>
<path d="M813.335 654.804H777.881L880.426 375.531H915.335L1017.88 654.804H982.426L898.972 419.713H896.79L813.335 654.804ZM826.426 545.713H969.335V575.713H826.426V545.713ZM1059.27 654.804V445.349H1091.45V654.804H1059.27ZM1075.63 410.44C1069.36 410.44 1063.95 408.304 1059.4 404.031C1054.95 399.758 1052.72 394.622 1052.72 388.622C1052.72 382.622 1054.95 377.486 1059.4 373.213C1063.95 368.94 1069.36 366.804 1075.63 366.804C1081.9 366.804 1087.27 368.94 1091.72 373.213C1096.27 377.486 1098.54 382.622 1098.54 388.622C1098.54 394.622 1096.27 399.758 1091.72 404.031C1087.27 408.304 1081.9 410.44 1075.63 410.44Z" fill="#EDF2F7"/>
</g>
<defs>
<filter id="filter0_ddd_4090_564" x="476" y="40" width="1330" height="980" filterUnits="userSpaceOnUse" color-interpolation-filters="sRGB">
<feFlood flood-opacity="0" result="BackgroundImageFix"/>
<feColorMatrix in="SourceAlpha" type="matrix" values="0 0 0 0 0 0 0 0 0 0 0 0 0 0 0 0 0 0 127 0" result="hardAlpha"/>
<feOffset dy="15"/>
<feGaussianBlur stdDeviation="20"/>
<feColorMatrix type="matrix" values="0 0 0 0 0 0 0 0 0 0 0 0 0 0 0 0 0 0 0.4 0"/>
<feBlend mode="normal" in2="BackgroundImageFix" result="effect1_dropShadow_4090_564"/>
<feColorMatrix in="SourceAlpha" type="matrix" values="0 0 0 0 0 0 0 0 0 0 0 0 0 0 0 0 0 0 127 0" result="hardAlpha"/>
<feOffset dy="5"/>
<feGaussianBlur stdDeviation="5"/>
<feColorMatrix type="matrix" values="0 0 0 0 0 0 0 0 0 0 0 0 0 0 0 0 0 0 0.2 0"/>
<feBlend mode="normal" in2="effect1_dropShadow_4090_564" result="effect2_dropShadow_4090_564"/>
<feColorMatrix in="SourceAlpha" type="matrix" values="0 0 0 0 0 0 0 0 0 0 0 0 0 0 0 0 0 0 127 0" result="hardAlpha"/>
<feMorphology radius="1" operator="dilate" in="SourceAlpha" result="effect3_dropShadow_4090_564"/>
<feOffset/>
<feColorMatrix type="matrix" values="0 0 0 0 0 0 0 0 0 0 0 0 0 0 0 0 0 0 0.1 0"/>
<feBlend mode="normal" in2="effect2_dropShadow_4090_564" result="effect3_dropShadow_4090_564"/>
<feBlend mode="normal" in="SourceGraphic" in2="effect3_dropShadow_4090_564" result="shape"/>
</filter>
</defs>
</svg>
